<svg xmlns="http://www.w3.org/2000/svg" width="15.294" height="14.911" viewBox="0 0 15.294 14.911">
  <path id="Icon_simple-adobeillustrator" data-name="Icon simple-adobeillustrator" d="M0,.45V15.361H15.294V.45Zm.637.637H14.656V14.724H.637ZM5.3,8.893,4.8,10.8c-.011.053-.032.065-.094.065H3.771c-.064,0-.073-.021-.064-.094l1.81-6.337a1.966,1.966,0,0,0,.062-.531c0-.042.021-.064.053-.064H6.968c.042,0,.064.011.074.064l2.03,6.878c.011.053,0,.084-.053.084H7.967c-.053,0-.084-.013-.094-.055L7.347,8.893H5.3ZM7.082,7.858c-.178-.7-.6-2.248-.757-2.995H6.314c-.136.746-.473,2.007-.736,2.995ZM9.949,4.316a.652.652,0,0,1,1.3,0,.61.61,0,0,1-.663.652.6.6,0,0,1-.644-.652Zm.071,1.449c0-.051.021-.07.074-.07h1c.056,0,.076.021.076.074V10.8c0,.053-.01.074-.073.074H10.11c-.064,0-.085-.032-.085-.083V5.765Z" transform="translate(0 -0.45)" fill="#c0caf5"/>
</svg>
