<svg xmlns="http://www.w3.org/2000/svg" width="18.189" height="17.735" viewBox="0 0 18.189 17.735">
  <path id="Icon_awesome-github" data-name="Icon awesome-github" d="M6.084,14.843c0,.073-.084.132-.191.132s-.205-.048-.205-.132.084-.132.191-.132S6.084,14.758,6.084,14.843Zm-1.141-.165c-.026.073.048.158.158.18a.172.172,0,0,0,.227-.073c.022-.073-.048-.158-.158-.191A.188.188,0,0,0,4.943,14.678Zm1.621-.062c-.106.026-.18.1-.169.18s.106.121.216.1.18-.1.169-.169S6.671,14.6,6.564,14.615ZM8.977.563A8.794,8.794,0,0,0,0,9.511a9.194,9.194,0,0,0,6.216,8.772c.469.084.634-.205.634-.444s-.011-1.482-.011-2.252c0,0-2.567.55-3.106-1.093,0,0-.418-1.067-1.019-1.342,0,0-.84-.576.059-.565a1.936,1.936,0,0,1,1.416.946,1.939,1.939,0,0,0,2.673.766,2.038,2.038,0,0,1,.587-1.236C5.4,12.837,3.33,12.54,3.33,9.012A2.779,2.779,0,0,1,4.2,6.852a3.465,3.465,0,0,1,.1-2.49c.766-.238,2.53.99,2.53.99a8.663,8.663,0,0,1,4.606,0s1.764-1.232,2.53-.99a3.463,3.463,0,0,1,.1,2.49A2.851,2.851,0,0,1,15,9.012c0,3.539-2.16,3.821-4.21,4.052a2.169,2.169,0,0,1,.623,1.7c0,1.236-.011,2.765-.011,3.066,0,.238.169.528.634.444a9.109,9.109,0,0,0,6.154-8.765A8.992,8.992,0,0,0,8.977.563ZM3.565,13.211c-.048.037-.037.121.026.191s.143.084.191.037.037-.121-.026-.191S3.612,13.163,3.565,13.211Zm-.4-.3c-.026.048.011.106.084.143a.109.109,0,0,0,.158-.026c.026-.048-.011-.106-.084-.143S3.194,12.877,3.168,12.914Zm1.188,1.306c-.059.048-.037.158.048.227s.191.1.238.037.026-.158-.048-.227S4.4,14.161,4.357,14.219Zm-.418-.539c-.059.037-.059.132,0,.216s.158.121.205.084a.167.167,0,0,0,0-.227C4.093,13.669,4,13.632,3.939,13.68Z" transform="translate(0 -0.563)" fill="#b4ffdf"/>
</svg>
