<svg xmlns="http://www.w3.org/2000/svg" width="16.109" height="16.106" viewBox="0 0 16.109 16.106">
  <path id="Icon_awesome-instagram" data-name="Icon awesome-instagram" d="M8.051,6.161A4.129,4.129,0,1,0,12.18,10.29,4.123,4.123,0,0,0,8.051,6.161Zm0,6.814a2.685,2.685,0,1,1,2.685-2.685,2.689,2.689,0,0,1-2.685,2.685Zm5.261-6.983a.963.963,0,1,1-.963-.963A.961.961,0,0,1,13.312,5.992Zm2.735.978a4.766,4.766,0,0,0-1.3-3.375,4.8,4.8,0,0,0-3.375-1.3c-1.33-.075-5.315-.075-6.645,0a4.791,4.791,0,0,0-3.375,1.3,4.782,4.782,0,0,0-1.3,3.375c-.075,1.33-.075,5.315,0,6.645a4.766,4.766,0,0,0,1.3,3.375,4.8,4.8,0,0,0,3.375,1.3c1.33.075,5.315.075,6.645,0a4.766,4.766,0,0,0,3.375-1.3,4.8,4.8,0,0,0,1.3-3.375c.075-1.33.075-5.312,0-6.641Zm-1.718,8.068A2.718,2.718,0,0,1,12.8,16.569c-1.06.42-3.576.323-4.747.323s-3.691.093-4.747-.323a2.718,2.718,0,0,1-1.531-1.531c-.42-1.06-.323-3.576-.323-4.747S1.356,6.6,1.773,5.543A2.718,2.718,0,0,1,3.3,4.012c1.06-.42,3.576-.323,4.747-.323s3.691-.093,4.747.323a2.718,2.718,0,0,1,1.531,1.531c.42,1.06.323,3.576.323,4.747S14.75,13.981,14.329,15.038Z" transform="translate(0.005 -2.238)" fill="#b4ffdf"/>
</svg>
