<svg xmlns="http://www.w3.org/2000/svg" width="18.638" height="18.638" viewBox="0 0 18.638 18.638">
  <path id="Icon_awesome-linkedin-in" data-name="Icon awesome-linkedin-in" d="M4.172,18.638H.308V6.195H4.172ZM2.238,4.5A2.248,2.248,0,1,1,4.476,2.239,2.257,2.257,0,0,1,2.238,4.5Zm16.4,14.141H14.778V12.581c0-1.444-.029-3.295-2.009-3.295-2.009,0-2.317,1.568-2.317,3.191v6.161H6.592V6.195H10.3v1.7h.054a4.06,4.06,0,0,1,3.656-2.009c3.911,0,4.63,2.575,4.63,5.92v6.835Z" transform="translate(0 -0.001)" fill="#b4ffdf"/>
</svg>
