<svg xmlns="http://www.w3.org/2000/svg" width="22.5" height="11.834" viewBox="0 0 22.5 11.834">
  <path id="Icon_awesome-php" data-name="Icon awesome-php" d="M11.25,6.757c6.026,0,10.659,2.538,10.659,5.326s-4.637,5.326-10.659,5.326S.591,14.871.591,12.083,5.228,6.757,11.25,6.757m0-.591C5.038,6.166,0,8.814,0,12.083S5.038,18,11.25,18,22.5,15.353,22.5,12.083,17.462,6.166,11.25,6.166ZM7.671,11.609c-.278,1.424-1.259,1.276-2.464,1.276L5.688,10.4C7.024,10.4,7.931,10.259,7.671,11.609ZM3.424,15.4h1.29l.306-1.575c1.445,0,2.341.105,3.171-.671a2.413,2.413,0,0,0,.5-3.1,2.057,2.057,0,0,0-1.635-.587H4.574ZM9.953,7.889h1.283L10.93,9.464c1.107,0,2.134-.081,2.63.376.52.478.271,1.09-.292,3.976h-1.3c.541-2.791.643-3.023.446-3.234s-.622-.162-1.666-.162l-.661,3.4H8.8l1.15-5.927Zm7.8,3.72c-.281,1.445-1.29,1.276-2.464,1.276l.482-2.482C17.114,10.4,18.014,10.259,17.754,11.609ZM13.507,15.4H14.8l.306-1.575c1.519,0,2.359.088,3.171-.671a2.413,2.413,0,0,0,.5-3.1,2.057,2.057,0,0,0-1.635-.587H14.66L13.507,15.4Z" transform="translate(0 -6.166)" fill="#c0caf5"/>
</svg>
