<svg xmlns="http://www.w3.org/2000/svg" width="15.292" height="14.91" viewBox="0 0 15.292 14.91">
  <path id="Icon_simple-adobephotoshop" data-name="Icon simple-adobephotoshop" d="M0,.45V15.36H15.292V.45Zm.637.637H14.655V14.722H.637ZM3.7,3.942c0-.043.089-.074.143-.074.41-.021,1.012-.032,1.643-.032,1.766,0,2.453.968,2.453,2.208,0,1.618-1.174,2.313-2.614,2.313-.242,0-.325-.011-.494-.011v2.448c0,.053-.021.074-.073.074H3.769c-.053,0-.073-.019-.073-.072V3.942ZM4.827,7.326c.147.01.263.01.516.01.745,0,1.446-.263,1.446-1.272,0-.809-.5-1.22-1.352-1.22-.252,0-.494.01-.61.021V7.328Zm5.484-.757c-.5,0-.673.252-.673.463,0,.231.115.389.788.736,1,.484,1.314.946,1.314,1.629,0,1.019-.777,1.567-1.829,1.567A2.784,2.784,0,0,1,8.6,10.69c-.041-.021-.051-.052-.051-.105V9.651c0-.064.031-.085.073-.054a2.347,2.347,0,0,0,1.282.378c.5,0,.715-.21.715-.494,0-.231-.147-.431-.788-.768C8.93,8.28,8.552,7.84,8.552,7.1a1.565,1.565,0,0,1,1.755-1.5,2.97,2.97,0,0,1,1.143.178.139.139,0,0,1,.064.126v.873c0,.053-.032.085-.1.064a2.282,2.282,0,0,0-1.111-.274Z" transform="translate(0 -0.45)" fill="#c0caf5"/>
</svg>
