<svg xmlns="http://www.w3.org/2000/svg" width="15.292" height="14.91" viewBox="0 0 15.292 14.91">
  <path id="Icon_simple-adobexd" data-name="Icon simple-adobexd" d="M12.584.45H2.708A2.706,2.706,0,0,0,0,3.158v9.494A2.706,2.706,0,0,0,2.708,15.36h9.876a2.706,2.706,0,0,0,2.708-2.708V3.158A2.706,2.706,0,0,0,12.584.45ZM14.648,12.4a2.308,2.308,0,0,1-2.307,2.319H2.95A2.317,2.317,0,0,1,.637,12.41V3.4A2.317,2.317,0,0,1,2.95,1.087h9.385A2.313,2.313,0,0,1,14.648,3.4Zm-8.6-4.976,1.784,3.428c.032.051.013.1-.038.1H6.684a.125.125,0,0,1-.134-.083c-.408-.841-.822-1.682-1.249-2.587H5.288c-.382.854-.8,1.752-1.211,2.593a.122.122,0,0,1-.115.07H2.912c-.064,0-.07-.051-.038-.089L4.619,7.535,2.931,4.171a.051.051,0,0,1,.038-.089h1.1a.1.1,0,0,1,.115.07c.4.841.809,1.708,1.191,2.555h.013c.37-.841.777-1.714,1.172-2.549.032-.051.051-.083.115-.083H7.7c.051,0,.07.038.038.089Zm2.1,1.039A2.492,2.492,0,0,1,10.7,5.821a2.826,2.826,0,0,1,.331.013V4.146a.064.064,0,0,1,.064-.064H12.1c.051,0,.064.019.064.051V9.982a4.538,4.538,0,0,0,.032.624c0,.038-.013.051-.051.07a3.8,3.8,0,0,1-1.631.37A2.269,2.269,0,0,1,8.143,8.465Zm2.886-1.631a.964.964,0,0,0-.37-.064c-.8,0-1.364.618-1.364,1.644,0,1.172.573,1.644,1.293,1.644a1.2,1.2,0,0,0,.44-.07V6.834Z" transform="translate(0 -0.45)" fill="#c0caf5"/>
</svg>
